<svg xmlns="http://www.w3.org/2000/svg" xmlns:xlink="http://www.w3.org/1999/xlink" viewBox="0 0 493.45 457.4"><defs><style>.cls-1{fill:url(#linear-gradient);}.cls-2{fill:#d8cfc0;}</style><linearGradient id="linear-gradient" x1="246.69" y1="585.54" x2="246.69" y2="95.94" gradientTransform="matrix(1, 0, 0, -1, 0, 578.4)" gradientUnits="userSpaceOnUse"><stop offset="0" stop-color="#e0ba65"/><stop offset="0.43" stop-color="#aa4b46"/><stop offset="0.78" stop-color="#6b2d2b"/><stop offset="1" stop-color="#491d1d"/></linearGradient></defs><title>logo</title><g id="Layer_2" data-name="Layer 2"><g id="svg8"><path class="cls-1" d="M238.3,455.4c-35.8,0-64-16.1-84.6-27.8-10.6-6-18.9-10.8-24.1-10.8-17.6,0-24,10.2-32.9,24.4-2.6,4.2-5.3,8.4-8.5,13a2.09,2.09,0,0,1-1.6.8H78.8a2,2,0,0,1-1.7-.9,2.08,2.08,0,0,1-.2-1.9L138,300.3a2,2,0,0,1,1.9-1.3H148a1.8,1.8,0,0,1,1.5.7,1.84,1.84,0,0,1,.5,1.5c-5.4,52.4,3.5,93.1,25.8,117.7,19.1,21.1,42.8,25.5,59.4,25.5,35.8,0,57.9-23.4,57.9-45.1,0-27.3-31-43.4-63.9-60.5-20.6-10.7-41.9-21.8-56.3-36.2-5.3-5.3-10.1-12.6-15.1-20.2-12.4-19-26.4-40.4-55.2-40.4-19.1,0-38.9,11-53,29.5C29.5,298,23.9,334.8,34.2,372.6a1.91,1.91,0,0,1-1.1,2.3,2.92,2.92,0,0,1-.9.2,2.09,2.09,0,0,1-1.6-.8C20,359.4,2,319.5,2,264.2,2,198.8,31.2,132.6,82.1,82.6,135,30.6,204.1,2,276.8,2c77.7,0,131.8,30.7,163.5,56.4,34.4,27.9,50.6,56.2,50.8,56.5a2,2,0,0,1-.5,2.6,1.92,1.92,0,0,1-1.2.4,2,2,0,0,1-1.4-.6c-.2-.2-17.7-16.9-45.9-33.3-26-15.2-66.6-33.2-112.7-33.2-46.5,0-81.8,18.4-104.9,54.6A152.22,152.22,0,0,0,204.4,156c10.3-5.7,40.9-20.5,78.2-20.5,36.6,0,59.4,11,76.1,19.1,8.4,4.1,15,7.3,20.3,7.3,13.8,0,25.9-23.9,26-24.2a1.89,1.89,0,0,1,1.8-1.1h9a2,2,0,0,1,1.7.9,2.15,2.15,0,0,1,.2,1.9L366.2,265.7a1.87,1.87,0,0,1-1.9,1.2h-7a2,2,0,0,1-2-1.8c-.3-3.5.1-8.8.5-15.5,1.6-22.7,4.2-60.6-16.7-82.9-11.4-12.2-28.8-18.5-51.7-18.5-26.8,0-48,11-55.3,28.6-6,14.4-1.6,30.5,12.1,44.1,6.5,6.5,23.6,15.6,41.8,25.3,24.7,13.2,52.7,28.1,67.5,42.9,17.4,17.4,25.8,40.5,23.9,65.3A96.9,96.9,0,0,1,350,414.1C322.5,441.5,285,455.4,238.3,455.4ZM379.2,192.3c1-1.9,2-4,3-6a11,11,0,0,1-1.8.2,5.28,5.28,0,0,1-1.3-.1v5.9Z"/><path class="cls-2" d="M276.8,4C426,4,489.3,115.9,489.3,115.9s-69.9-67.1-160-67.1c-114,0-127.6,111.1-127.6,111.1s35-22.3,80.9-22.3c55.8,0,80.1,26.4,96.4,26.4,15.2,0,27.8-25.3,27.8-25.3h9L364.4,265h-7c-1.8-21.5,22.3-118.7-69.8-118.7-54.6,0-77.6,43.2-44.7,76.1,15.4,15.4,83.4,42.4,109.3,68.3,36.9,36.9,26.4,92.2-3.6,122.1-37.8,37.8-87.2,40.7-110.2,40.7-54.6,0-92.5-38.6-108.7-38.6-23.9,0-28.3,17.7-43,38.2H78.9l61-151.9H148c-10.9,105.9,37.1,145.5,87.2,145.5,36.6,0,59.9-24.2,59.9-47.1,0-46.2-83.7-61-120.8-98.1-18.4-18.5-30.1-61.3-71.7-61.3C59,240.2,11,295.3,32.2,373.1c-7.9-11-28.3-49.8-28.3-109C4,130.7,125.1,4,276.8,4m110,177.7c-2.6,2.2-4.8,2.8-6.4,2.8a5.13,5.13,0,0,1-3.3-1.1v17.4s6.5-13,9.7-19.1M276.8,0A274.59,274.59,0,0,0,168.6,22.2a284.3,284.3,0,0,0-87.9,59C29.4,131.6,0,198.3,0,264.2,0,320,18.2,360.4,29,375.5a4,4,0,0,0,3.3,1.7,3.29,3.29,0,0,0,1.7-.4,3.84,3.84,0,0,0,2.1-4.7C26,334.9,31.5,298.8,51.2,273c13.7-18,33-28.7,51.4-28.7,27.7,0,40.8,20.1,53.5,39.5,5.1,7.7,9.8,15,15.3,20.5,14.7,14.7,36.1,25.8,56.8,36.6,32.3,16.8,62.8,32.6,62.8,58.7,0,10.4-5.4,21-14.8,29.1-10.5,9-25.1,14-41.1,14-16.2,0-39.4-4.3-58-24.9-21.8-24.2-30.6-64.4-25.3-116.2a4.45,4.45,0,0,0-1-3.1,4.16,4.16,0,0,0-3-1.3h-8.1a4,4,0,0,0-3.7,2.5L74.9,451.6a4.06,4.06,0,0,0,.4,3.7,4,4,0,0,0,3.3,1.8h7.8a4,4,0,0,0,3.3-1.7c3.3-4.6,6-8.9,8.6-13.1,8.8-14.1,14.7-23.5,31.2-23.5,4.7,0,13.2,4.9,23.1,10.5,20.8,11.8,49.3,28.1,85.6,28.1,47.2,0,85.2-14.1,113-41.9,31.6-31.6,41.9-89.4,3.6-127.8-15-15-43.2-30-68-43.3-18-9.6-35-18.7-41.3-25-13-13-17.3-28.3-11.6-41.9,7-16.9,27.5-27.4,53.5-27.4,22.3,0,39.2,6,50.2,17.8,20.3,21.7,17.7,59.1,16.1,81.4a115.9,115.9,0,0,0-.5,15.8,4,4,0,0,0,4,3.7h7a4,4,0,0,0,3.7-2.5l51.5-126.1a3.79,3.79,0,0,0-.4-3.7,4,4,0,0,0-3.3-1.8h-9a4.17,4.17,0,0,0-3.6,2.2c-3.2,6.4-13.8,23.1-24.2,23.1-4.8,0-11.3-3.1-19.4-7.1-15.9-7.7-39.9-19.3-77-19.3-34.3,0-62.4,12-75.3,18.7a149.87,149.87,0,0,1,19.1-46c22.7-35.5,57.3-53.5,103-53.5s86,18,111.8,33c28,16.4,45.3,32.8,45.5,33a4.3,4.3,0,0,0,2.8,1.1,4.63,4.63,0,0,0,2.5-.8,3.9,3.9,0,0,0,1-5.1c-.7-1.2-16.6-29-51.3-57.1a249.78,249.78,0,0,0-67.1-39.1C344.2,6,311.3,0,276.8,0Z"/></g></g></svg>